<svg
  xmlns="http://www.w3.org/2000/svg"
  width="24"
  height="24"
  viewBox="0 0 24 24"
  fill="none"
>
  <path
    d="M7.1 3.5L9.2 8.1C9.45 8.65 9.31 9.29 8.86 9.69L7.2 11.18C8.35 13.55 10.27 15.47 12.64 16.62L14.13 14.96C14.53 14.51 15.17 14.37 15.72 14.62L20.32 16.72C20.91 16.99 21.22 17.64 21.06 18.27L20.53 20.32C20.36 20.96 19.79 21.4 19.13 21.4C10.1 21.4 2.6 13.9 2.6 4.87C2.6 4.21 3.04 3.64 3.68 3.47L5.73 2.94C6.36 2.78 7.01 3.09 7.28 3.68L7.1 3.5Z"
    stroke="#A1A1AA"
    stroke-width="1.8"
    stroke-linecap="round"
    stroke-linejoin="round"
  />
</svg>